<svg width="101" height="216" fill="none" xmlns="http://www.w3.org/2000/svg"><g clip-path="url(#a)" fill="#e80566"><path d="M4.364 98.191a2.182 2.182 0 1 0-4.364 0 2.182 2.182 0 0 0 4.364 0Zm0-57.166a2.182 2.182 0 1 0-4.364 0 2.182 2.182 0 0 0 4.364 0Zm19.2 57.166a2.182 2.182 0 1 0-4.363 0 2.182 2.182 0 0 0 4.363 0Zm.001-57.166a2.182 2.182 0 1 0-4.364 0 2.182 2.182 0 0 0 4.364 0Zm19.2 57.166a2.182 2.182 0 1 0-4.364 0 2.182 2.182 0 0 0 4.364 0Zm0-57.166a2.182 2.182 0 1 0-4.364 0 2.182 2.182 0 0 0 4.364 0Zm19.201 57.166a2.182 2.182 0 1 0-4.364 0 2.182 2.182 0 0 0 4.364 0Zm0-57.166a2.182 2.182 0 1 0-4.364 0 2.182 2.182 0 0 0 4.364 0ZM81.167 98.19a2.182 2.182 0 1 0-4.364 0 2.182 2.182 0 0 0 4.364 0Zm18.95 0a2.182 2.182 0 1 0-4.364 0 2.182 2.182 0 0 0 4.364 0Zm-18.95-57.165a2.182 2.182 0 1 0-4.364 0 2.182 2.182 0 0 0 4.364 0Zm18.95 0a2.182 2.182 0 1 0-4.364 0 2.182 2.182 0 0 0 4.364 0ZM4.364 78.99a2.182 2.182 0 1 0-4.364 0 2.182 2.182 0 0 0 4.364 0Zm0-57.166a2.182 2.182 0 1 0-4.364 0 2.182 2.182 0 0 0 4.364 0Zm19.2 57.166a2.182 2.182 0 1 0-4.363 0 2.182 2.182 0 0 0 4.363 0Zm0-57.166a2.182 2.182 0 1 0-4.363 0 2.182 2.182 0 0 0 4.363 0ZM42.765 78.99a2.182 2.182 0 1 0-4.363 0 2.182 2.182 0 0 0 4.363 0Zm0-57.166a2.182 2.182 0 1 0-4.364 0 2.182 2.182 0 0 0 4.364 0ZM61.966 78.99a2.182 2.182 0 1 0-4.364 0 2.182 2.182 0 0 0 4.364 0Zm0-57.166a2.182 2.182 0 1 0-4.364 0 2.182 2.182 0 0 0 4.364 0ZM81.167 78.99a2.182 2.182 0 1 0-4.364 0 2.182 2.182 0 0 0 4.364 0Zm18.95 0a2.182 2.182 0 1 0-4.364 0 2.182 2.182 0 0 0 4.364 0Zm-18.95-57.166a2.182 2.182 0 1 0-4.364 0 2.182 2.182 0 0 0 4.364 0Zm18.95 0a2.182 2.182 0 1 0-4.364 0 2.182 2.182 0 0 0 4.364 0ZM4.364 59.79a2.182 2.182 0 1 0-4.364 0 2.182 2.182 0 0 0 4.364 0Zm0-57.167a2.182 2.182 0 1 0-4.364 0 2.182 2.182 0 0 0 4.364 0ZM23.565 59.79a2.182 2.182 0 1 0-4.364 0 2.182 2.182 0 0 0 4.364 0Zm-.001-57.167a2.182 2.182 0 1 0-4.363 0 2.182 2.182 0 0 0 4.363 0ZM42.765 59.79a2.182 2.182 0 1 0-4.363 0 2.182 2.182 0 0 0 4.363 0Zm0-57.167a2.182 2.182 0 1 0-4.364 0 2.182 2.182 0 0 0 4.364 0ZM61.966 59.79a2.182 2.182 0 1 0-4.364 0 2.182 2.182 0 0 0 4.364 0Zm0-57.167a2.182 2.182 0 1 0-4.364 0 2.182 2.182 0 0 0 4.364 0ZM81.167 59.79a2.182 2.182 0 1 0-4.364 0 2.182 2.182 0 0 0 4.364 0Zm18.95 0a2.182 2.182 0 1 0-4.364 0 2.182 2.182 0 0 0 4.364 0ZM81.167 2.624a2.182 2.182 0 1 0-4.364 0 2.182 2.182 0 0 0 4.364 0Zm18.95 0a2.182 2.182 0 1 0-4.364 0 2.182 2.182 0 0 0 4.364 0Z"/></g><g clip-path="url(#b)" fill="#e80566"><path d="M4.364 212.308a2.182 2.182 0 1 0-4.364 0 2.182 2.182 0 0 0 4.364 0Zm0-57.166a2.182 2.182 0 1 0-4.364 0 2.182 2.182 0 0 0 4.364 0Zm19.2 57.166a2.182 2.182 0 1 0-4.363 0 2.182 2.182 0 0 0 4.363 0Zm.001-57.166a2.182 2.182 0 1 0-4.364 0 2.182 2.182 0 0 0 4.364 0Zm19.2 57.166a2.182 2.182 0 1 0-4.364 0 2.182 2.182 0 0 0 4.364 0Zm0-57.166a2.182 2.182 0 1 0-4.364 0 2.182 2.182 0 0 0 4.364 0Zm19.201 57.166a2.182 2.182 0 1 0-4.364 0 2.182 2.182 0 0 0 4.364 0Zm0-57.166a2.182 2.182 0 1 0-4.364 0 2.182 2.182 0 0 0 4.364 0Zm19.201 57.166a2.182 2.182 0 1 0-4.364 0 2.182 2.182 0 0 0 4.364 0Zm18.95 0a2.182 2.182 0 1 0-4.364 0 2.182 2.182 0 0 0 4.364 0Zm-18.95-57.166a2.182 2.182 0 1 0-4.364 0 2.182 2.182 0 0 0 4.364 0Zm18.95 0a2.182 2.182 0 1 0-4.364 0 2.182 2.182 0 0 0 4.364 0ZM4.364 193.107a2.181 2.181 0 1 0-4.363 0 2.181 2.181 0 0 0 4.363 0Zm0-57.166a2.182 2.182 0 1 0-4.364 0 2.182 2.182 0 0 0 4.364 0Zm19.2 57.166a2.181 2.181 0 1 0-4.362 0 2.181 2.181 0 0 0 4.362 0Zm0-57.166a2.182 2.182 0 1 0-4.363 0 2.182 2.182 0 0 0 4.363 0Zm19.201 57.166a2.181 2.181 0 1 0-4.362 0 2.181 2.181 0 0 0 4.362 0Zm0-57.166a2.182 2.182 0 1 0-4.364 0 2.182 2.182 0 0 0 4.364 0Zm19.201 57.166a2.181 2.181 0 1 0-4.362 0 2.181 2.181 0 0 0 4.362 0Zm0-57.166a2.182 2.182 0 1 0-4.364 0 2.182 2.182 0 0 0 4.364 0Zm19.201 57.166a2.181 2.181 0 1 0-4.363 0 2.181 2.181 0 0 0 4.363 0Zm18.95 0a2.181 2.181 0 1 0-4.362 0 2.181 2.181 0 0 0 4.362 0Zm-18.95-57.166a2.182 2.182 0 1 0-4.364 0 2.182 2.182 0 0 0 4.364 0Zm18.95 0a2.182 2.182 0 1 0-4.364 0 2.182 2.182 0 0 0 4.364 0ZM4.364 173.906a2.181 2.181 0 1 0-4.363 0 2.181 2.181 0 0 0 4.363 0Zm0-57.166a2.182 2.182 0 1 0-4.364 0 2.182 2.182 0 0 0 4.364 0Zm19.201 57.166a2.181 2.181 0 1 0-4.363 0 2.181 2.181 0 0 0 4.363 0Zm-.001-57.166a2.182 2.182 0 1 0-4.363 0 2.182 2.182 0 0 0 4.363 0Zm19.201 57.166a2.181 2.181 0 1 0-4.362 0 2.181 2.181 0 0 0 4.362 0Zm0-57.166a2.182 2.182 0 1 0-4.364 0 2.182 2.182 0 0 0 4.364 0Zm19.201 57.166a2.181 2.181 0 1 0-4.362 0 2.181 2.181 0 0 0 4.362 0Zm0-57.166a2.182 2.182 0 1 0-4.364 0 2.182 2.182 0 0 0 4.364 0Zm19.201 57.167a2.182 2.182 0 1 0-4.364 0 2.182 2.182 0 0 0 4.364 0Zm18.95 0a2.182 2.182 0 1 0-4.364 0 2.182 2.182 0 0 0 4.364 0Zm-18.95-57.166a2.182 2.182 0 1 0-4.364 0 2.182 2.182 0 0 0 4.364 0Zm18.95 0a2.182 2.182 0 1 0-4.364 0 2.182 2.182 0 0 0 4.364 0Z"/></g><defs><clipPath id="a"><path fill="#fff" transform="translate(0 .442)" d="M0 0h101v101H0z"/></clipPath><clipPath id="b"><path fill="#fff" transform="translate(0 114.558)" d="M0 0h101v101H0z"/></clipPath></defs></svg>