<svg width="396" height="223.36805018775524" xmlns="http://www.w3.org/2000/svg" viewBox="0 0 350 197.4212564790766"
  class="css-1j8o68f">
  <defs id="SvgjsDefs4465"></defs>
  <g id="SvgjsG4466" featurekey="aMgJeN-0"
    transform="matrix(1.5555555820465088,0,0,1.5555555820465088,97.2222237057156,-7.777777777777777)" fill="#12b886">
    <g xmlns="http://www.w3.org/2000/svg">
      <path
        d="M78.4,66.5c-5.5,4.8-9.9,15.2-9.9,15.2s-6.9-11.4-12.9-15.3c-9.5-6.1-13.6-6.2-13.6-6.2V65c0,0,7.8,1.2,11.7,4.6   c8.2,7.1,14.8,18.5,14.8,18.5S74.4,75,80.1,70.5C88.1,64.3,95,65,95,65v-4.8C95,60.1,85.1,60.7,78.4,66.5z">
      </path>
      <path
        d="M42,80c-6.4-3.6-17.8-4.3-17.8-4.3s8.7-10.1,10.5-17C37.5,47.9,36.2,44,36.2,44l-4.6,1.6c0,0,1.3,7.7-0.6,12.4   c-4.1,9.9-13,19.8-13,19.8s14.6,1.3,20.7,5.1c8.6,5.4,10.2,12,10.2,12l4.6-1.6C53.5,93.4,49.7,84.4,42,80z">
      </path>
      <path
        d="M35.3,36.8c11.3-0.9,14.6-3.4,14.6-3.4l-3-3.8c0,0-6.9,3.7-12.1,3.4c-10.9-0.6-23.3-5.6-23.3-5.6s3.5,14,1.8,20.9   C10.9,58.2,5,61.8,5,61.8l3,3.8c0,0,7.5-6.5,9.1-15.1c1.3-7.1-1.7-18-1.7-18S28,37.4,35.3,36.8z">
      </path>
      <path
        d="M37.4,17.8c7.3-1.1,16.7-7.4,16.7-7.4s-0.6,13.2,2.4,19.8c4.6,10.2,8,12.5,8,12.5l2.7-4c0,0-5.9-5.2-7.3-10.2   C56.9,18.2,57.7,5,57.7,5s-12.3,7.8-19.5,8.5c-10.2,1-15.6-3.3-15.6-3.3l-2.7,4.1C19.9,14.2,28.6,19.1,37.4,17.8z">
      </path>
      <path
        d="M65,60.5c0,0,3.1-7.2,7.4-10.1c9-6.1,21.9-9.7,21.9-9.7s-11.5-8.9-14.5-15.4c-4.2-9.1-1.9-15.6-1.9-15.6l-4.8-1.2   c0,0-1.9,9.6,2.2,17.4c3.4,6.4,12.5,13.2,12.5,13.2S75,42.9,69.6,47.8c-8.3,7.6-9.4,11.5-9.4,11.5L65,60.5z">
      </path>
    </g>
  </g>
  <g id="SvgjsG4467" featurekey="8L6ael-0"
    transform="matrix(2.51149320602417,0,0,2.51149320602417,-4.0602490669741,147.44253786904554)" fill="#393e46">
    <path
      d="M15.36 5 q0.28 0 0.49 0.21 t0.21 0.49 l0 13.4 q0 0.28 -0.21 0.49 t-0.49 0.21 l-1.52 0 q-0.3 0 -0.5 -0.21 t-0.2 -0.49 l0 -9.04 l-3.7 4.76 q-0.22 0.26 -0.56 0.26 l0 0 q-0.16 0 -0.32 -0.07 t-0.24 -0.21 l-6.56 -8.68 q-0.12 -0.14 -0.14 -0.35 t0.08 -0.38 t0.26 -0.28 t0.36 -0.11 l1.76 0 q0.34 0 0.56 0.28 l4.24 5.6 l4.14 -5.6 q0.22 -0.28 0.58 -0.28 l1.76 0 z M3.84 14.7 q0.28 0 0.49 0.2 t0.21 0.5 l0 3.7 q0 0.28 -0.21 0.49 t-0.49 0.21 l-1.52 0 q-0.28 0 -0.49 -0.21 t-0.21 -0.49 l0 -3.7 q0 -0.3 0.21 -0.5 t0.49 -0.2 l1.52 0 z M26.868000000000002 5.16 q0.24 0.2 0.24 0.54 l0 1.5 q0 0.26 -0.15 0.45 t-0.41 0.25 q-1.28 0.26 -2.18 1.22 q-1.22 1.28 -1.22 3.33 t1.22 3.35 q0.9 0.94 2.18 1.2 q0.26 0.06 0.41 0.25 t0.15 0.45 l0 1.5 q0 0.32 -0.24 0.54 q-0.22 0.16 -0.46 0.16 l-0.12 0 q-2.32 -0.38 -3.98 -2.1 q-2.08 -2.14 -2.08 -5.33 t2.08 -5.37 q1.62 -1.68 3.98 -2.08 q0.32 -0.06 0.58 0.14 z M33.147999999999996 7.1 q2.08 2.18 2.08 5.37 t-2.08 5.33 q-1.66 1.72 -3.98 2.1 l-0.12 0 q-0.24 0 -0.46 -0.16 q-0.24 -0.22 -0.24 -0.54 l0 -1.5 q0 -0.26 0.15 -0.45 t0.41 -0.25 q1.28 -0.26 2.18 -1.2 q1.22 -1.3 1.22 -3.35 t-1.22 -3.33 q-0.9 -0.96 -2.18 -1.22 q-0.26 -0.06 -0.41 -0.25 t-0.15 -0.45 l0 -1.5 q0 -0.34 0.25 -0.54 t0.57 -0.14 q2.36 0.4 3.98 2.08 z M40.096 10.12 q-0.28 0 -0.49 -0.21 t-0.21 -0.49 l0 -3.72 q0 -0.28 0.21 -0.49 t0.49 -0.21 l1.52 0 q0.3 0 0.5 0.21 t0.2 0.49 l0 3.72 q0 0.28 -0.2 0.49 t-0.5 0.21 l-1.52 0 z M50.955999999999996 5 q0.28 0 0.49 0.21 t0.21 0.49 l0 13.44 q0 0.28 -0.21 0.49 t-0.49 0.21 l-1.52 0 q-0.3 0 -0.5 -0.21 t-0.2 -0.49 l0 -5.28 l-6.42 0 l0 5.28 q0 0.28 -0.2 0.49 t-0.5 0.21 l-1.52 0 q-0.28 0 -0.49 -0.21 t-0.21 -0.49 l0 -7.48 q0 -0.28 0.21 -0.49 t0.49 -0.21 l8.64 0 l0 -5.26 q0 -0.28 0.2 -0.49 t0.5 -0.21 l1.52 0 z M69.824 18.86 q0.14 0.32 -0.07 0.65 t-0.57 0.33 l-13.32 0 q-0.18 0 -0.34 -0.09 t-0.24 -0.23 q-0.22 -0.32 -0.06 -0.66 l0.62 -1.46 q0.08 -0.2 0.26 -0.32 t0.38 -0.12 l9.32 0 l-3.28 -7.84 l-2.68 6.4 q-0.08 0.2 -0.25 0.31 t-0.39 0.11 l-1.68 0 q-0.38 0 -0.6 -0.32 q-0.08 -0.14 -0.1 -0.32 t0.04 -0.34 l4.06 -9.52 q0.08 -0.2 0.25 -0.32 t0.39 -0.12 l1.92 0 q0.22 0 0.39 0.12 t0.25 0.32 z M87.112 5 q0.28 0 0.49 0.21 t0.21 0.49 l0 13.4 q0 0.28 -0.21 0.49 t-0.49 0.21 l-1.52 0 q-0.3 0 -0.5 -0.21 t-0.2 -0.49 l0 -9.04 l-3.7 4.76 q-0.22 0.26 -0.56 0.26 l0 0 q-0.16 0 -0.32 -0.07 t-0.24 -0.21 l-6.56 -8.68 q-0.12 -0.14 -0.14 -0.35 t0.08 -0.38 t0.26 -0.28 t0.36 -0.11 l1.76 0 q0.34 0 0.56 0.28 l4.24 5.6 l4.14 -5.6 q0.22 -0.28 0.58 -0.28 l1.76 0 z M75.592 14.7 q0.28 0 0.49 0.2 t0.21 0.5 l0 3.7 q0 0.28 -0.21 0.49 t-0.49 0.21 l-1.52 0 q-0.28 0 -0.49 -0.21 t-0.21 -0.49 l0 -3.7 q0 -0.3 0.21 -0.5 t0.49 -0.2 l1.52 0 z M106.55999999999999 5 q0.28 0 0.49 0.21 t0.21 0.49 l0 13.4 q0 0.28 -0.21 0.49 t-0.49 0.21 l-1.52 0 q-0.3 0 -0.5 -0.21 t-0.2 -0.49 l0 -9.04 l-3.7 4.76 q-0.22 0.26 -0.56 0.26 l0 0 q-0.16 0 -0.32 -0.07 t-0.24 -0.21 l-6.56 -8.68 q-0.12 -0.14 -0.14 -0.35 t0.08 -0.38 t0.26 -0.28 t0.36 -0.11 l1.76 0 q0.34 0 0.56 0.28 l4.24 5.6 l4.14 -5.6 q0.22 -0.28 0.58 -0.28 l1.76 0 z M95.03999999999999 14.7 q0.28 0 0.49 0.2 t0.21 0.5 l0 3.7 q0 0.28 -0.21 0.49 t-0.49 0.21 l-1.52 0 q-0.28 0 -0.49 -0.21 t-0.21 -0.49 l0 -3.7 q0 -0.3 0.21 -0.5 t0.49 -0.2 l1.52 0 z M122.848 16.96 q0.3 0 0.5 0.21 t0.2 0.51 l0 1.46 q0 0.28 -0.2 0.49 t-0.5 0.21 l-9.88 0 q-0.28 0 -0.49 -0.21 t-0.21 -0.49 l0 -1.46 q0 -0.3 0.21 -0.51 t0.49 -0.21 l9.88 0 z M112.96799999999999 13.86 q-0.28 0 -0.49 -0.21 t-0.21 -0.49 l0 -1.5 q0 -0.28 0.21 -0.49 t0.49 -0.21 l8.98 0 q0.3 0 0.51 0.21 t0.21 0.49 l0 1.5 q0 0.28 -0.21 0.49 t-0.51 0.21 l-8.98 0 z M122.848 5 q0.3 0 0.5 0.21 t0.2 0.49 l0 1.46 q0 0.3 -0.2 0.51 t-0.5 0.21 l-9.88 0 q-0.28 0 -0.49 -0.21 t-0.21 -0.51 l0 -1.46 q0 -0.28 0.21 -0.49 t0.49 -0.21 l9.88 0 z M136.676 5.52 q1.22 0.46 2.2 1.48 q2.1 2.12 2.1 5.41 t-2.1 5.43 q-0.98 1.02 -2.2 1.48 q-1.26 0.52 -2.58 0.52 l-5.66 0 q-0.28 0 -0.49 -0.21 t-0.21 -0.49 l0 -1.44 q0 -0.3 0.21 -0.51 t0.49 -0.21 l5.6 0 q1.78 0 2.89 -1.3 t1.11 -3.26 t-1.11 -3.26 t-2.89 -1.3 l-5.6 0 q-0.28 0 -0.49 -0.21 t-0.21 -0.51 l0 -1.44 q0 -0.28 0.21 -0.49 t0.49 -0.21 l5.66 0 q1.32 0 2.58 0.52 z">
    </path>
  </g>
</svg>
